<?xml version="1.0" encoding="UTF-8" standalone="no"?>
<!DOCTYPE svg PUBLIC "-//W3C//DTD SVG 1.1//EN"
 "http://www.w3.org/Graphics/SVG/1.1/DTD/svg11.dtd">
<!-- Generated by graphviz version 2.43.0 (0)
 -->
<!-- Title: %3 Pages: 1 -->
<svg width="177pt" height="44pt"
 viewBox="0.00 0.00 176.91 44.00" xmlns="http://www.w3.org/2000/svg" xmlns:xlink="http://www.w3.org/1999/xlink">
<g id="graph0" class="graph" transform="scale(1 1) rotate(0) translate(4 40)">
<title>%3</title>
<polygon fill="white" stroke="transparent" points="-4,4 -4,-40 172.91,-40 172.91,4 -4,4"/>
<!-- node 1 -->
<g id="node1" class="node">
<title>node 1</title>
<polygon fill="none" stroke="black" points="48,-36 0,-36 0,0 54,0 54,-30 48,-36"/>
<polyline fill="none" stroke="black" points="48,-36 48,-30 "/>
<polyline fill="none" stroke="black" points="54,-30 48,-30 "/>
<text text-anchor="middle" x="27" y="-13.8" font-family="Times,serif" font-size="14.00">node 1</text>
</g>
<!-- node 2 -->
<g id="node2" class="node">
<title>node 2</title>
<polygon fill="none" stroke="black" points="133.1,-0.05 135.52,-0.15 137.91,-0.3 140.26,-0.49 142.58,-0.74 144.83,-1.03 147.03,-1.36 149.15,-1.75 151.2,-2.18 153.15,-2.65 155.02,-3.16 156.78,-3.71 158.44,-4.31 159.99,-4.94 161.42,-5.61 162.73,-6.31 163.92,-7.04 164.98,-7.8 165.92,-8.59 166.72,-9.41 167.4,-10.25 167.95,-11.11 168.37,-11.99 168.66,-12.89 168.83,-13.8 168.87,-14.72 168.8,-15.65 168.61,-16.59 168.3,-17.53 167.89,-18.47 167.38,-19.41 166.76,-20.35 166.06,-21.28 165.26,-22.2 164.38,-23.11 163.42,-24.01 162.39,-24.89 161.29,-25.75 160.13,-26.59 158.92,-27.41 157.65,-28.2 156.33,-28.96 154.97,-29.69 153.57,-30.39 152.14,-31.06 150.68,-31.69 149.19,-32.29 147.68,-32.84 146.15,-33.35 144.61,-33.82 143.05,-34.25 141.47,-34.64 139.89,-34.97 138.3,-35.26 136.7,-35.51 135.09,-35.7 133.49,-35.85 131.88,-35.95 130.26,-36 128.65,-36 127.04,-35.95 125.43,-35.85 123.82,-35.7 122.22,-35.51 120.62,-35.26 119.03,-34.97 117.44,-34.64 115.87,-34.25 114.31,-33.82 112.76,-33.35 111.23,-32.84 109.72,-32.29 108.23,-31.69 106.77,-31.06 105.34,-30.39 103.94,-29.69 102.59,-28.96 101.27,-28.2 100,-27.41 98.78,-26.59 97.62,-25.75 96.52,-24.89 95.49,-24.01 94.53,-23.11 93.65,-22.2 92.86,-21.28 92.15,-20.35 91.54,-19.41 91.02,-18.47 90.61,-17.53 90.31,-16.59 90.12,-15.65 90.04,-14.72 90.09,-13.8 90.26,-12.89 90.55,-11.99 90.97,-11.11 91.52,-10.25 92.19,-9.41 93,-8.59 93.93,-7.8 95,-7.04 96.18,-6.31 97.5,-5.61 98.93,-4.94 100.47,-4.31 102.13,-3.71 103.9,-3.16 105.76,-2.65 107.72,-2.18 109.76,-1.75 111.89,-1.36 114.08,-1.03 116.34,-0.74 118.65,-0.49 121.01,-0.3 123.4,-0.15 125.81,-0.05 128.24,0 130.67,0 133.1,-0.05"/>
<text text-anchor="middle" x="129.46" y="-13.8" font-family="Times,serif" font-size="14.00">node 2</text>
</g>
<!-- node 1&#45;&gt;node 2 -->
<g id="edge1" class="edge">
<title>node 1&#45;&gt;node 2</title>
<path fill="none" stroke="purple" d="M54.13,-18C62.24,-18 71.45,-18 80.56,-18"/>
<polygon fill="purple" stroke="purple" points="80.73,-21.5 90.73,-18 80.73,-14.5 80.73,-21.5"/>
</g>
</g>
</svg>
